<?xml version="1.0" standalone="no"?>
<!DOCTYPE svg PUBLIC "-//W3C//DTD SVG 20010904//EN"
 "http://www.w3.org/TR/2001/REC-SVG-20010904/DTD/svg10.dtd">
<svg version="1.0" xmlns="http://www.w3.org/2000/svg"
 width="256.000000pt" height="256.000000pt" viewBox="0 0 256.000000 256.000000"
 preserveAspectRatio="xMidYMid meet">
<metadata>
Created by potrace 1.14, written by Peter Selinger 2001-2017
</metadata>
<g transform="translate(0.000000,256.000000) scale(0.100000,-0.100000)"
fill="#000000" stroke="none">
<path d="M1785 2536 c9 -13 48 -53 87 -90 l71 -66 218 0 219 0 2 -542 1 -543
8 320 c5 176 11 330 14 342 5 21 6 21 74 -13 38 -19 72 -34 75 -34 3 0 6 146
6 325 l0 325 -395 0 -395 0 15 -24z"/>
<path d="M2187 2362 c-15 -6 -11 -12 25 -38 24 -17 66 -50 94 -73 60 -48 64
-45 64 55 l0 64 -82 -1 c-46 0 -91 -4 -101 -7z"/>
<path d="M1130 1974 c-157 -8 -307 -16 -335 -20 l-50 -6 -88 -125 c-49 -68
-87 -126 -85 -128 3 -3 540 11 689 17 l57 3 -38 -45 c-21 -25 -58 -66 -82 -92
l-43 -48 -100 -6 -100 -6 -97 -66 c-54 -36 -96 -67 -95 -69 2 -1 64 1 138 5
74 5 135 8 136 8 1 -1 -64 -75 -144 -166 -80 -91 -168 -191 -195 -223 l-49
-59 6 -61 c3 -34 8 -77 11 -95 l5 -33 86 7 c72 6 85 5 77 -7 -17 -28 -128
-165 -168 -206 -22 -24 -38 -45 -35 -47 3 -4 844 38 933 46 27 3 23 7 -60 66
l-89 64 -215 -6 c-118 -4 -258 -9 -310 -12 l-95 -6 60 59 60 59 215 13 c402
23 664 41 668 46 3 3 3 7 1 8 -2 2 -52 41 -111 86 l-108 82 -205 -11 c-114 -7
-208 -10 -211 -8 -2 3 93 92 211 199 188 169 224 206 277 287 33 51 59 94 57
95 -2 2 -64 -2 -138 -8 l-134 -11 -53 -60 c-30 -32 -54 -63 -54 -68 0 -5 48
-6 113 -2 l112 7 -25 -25 c-14 -13 -124 -115 -245 -225 l-219 -201 -74 0 c-69
0 -73 1 -61 17 8 10 113 130 235 268 121 137 259 295 307 349 l87 99 0 123 c0
67 -3 129 -6 138 -7 19 -16 19 -424 0z"/>
<path d="M1601 1864 c0 -11 3 -14 6 -6 3 7 2 16 -1 19 -3 4 -6 -2 -5 -13z"/>
<path d="M273 163 c26 -2 67 -2 90 0 23 2 2 3 -48 3 -49 0 -68 -1 -42 -3z"/>
</g>
</svg>
